<?xml version="1.0" encoding="utf-8"?>
<!-- Generator: Adobe Illustrator 15.1.0, SVG Export Plug-In . SVG Version: 6.00 Build 0)  -->
<!DOCTYPE svg PUBLIC "-//W3C//DTD SVG 1.1//EN" "http://www.w3.org/Graphics/SVG/1.1/DTD/svg11.dtd">
<svg version="1.1" id="Layer_1" xmlns="http://www.w3.org/2000/svg" xmlns:xlink="http://www.w3.org/1999/xlink" x="0px" y="0px"
	 width="30px" height="30px" viewBox="0 0 30 30" enable-background="new 0 0 30 30" xml:space="preserve">
<g>
	<path fill="#EE4323" d="M11.017,28.368c-1.606-0.698-3.104-2.452-3.104-4.255c0-1.962,1.239-3.63,2.791-4.727
		c-0.188,0.706-0.285,1.348,0.169,1.979c0.429,0.588,1.178,0.874,1.892,0.714c1.658-0.364,1.73-2.185,0.749-3.247
		c-0.972-1.06-1.908-2.244-1.533-3.771c0.187-0.767,0.649-1.48,1.247-1.988c-0.454,1.204,0.84,2.38,1.694,2.976
		c1.482,1.028,3.113,1.795,4.479,2.999c1.434,1.256,2.496,2.97,2.281,4.939c-0.231,2.14-1.934,3.629-3.843,4.387
		c4.039-0.893,8.203-4.021,8.293-8.498c0.071-3.683-2.452-6.518-5.582-8.141l-0.162-0.089c0.091,0.205,0.116,0.383,0.106,0.543
		c0.028-0.117,0.045-0.241,0.056-0.365c0,0.151-0.02,0.303-0.056,0.436l0.01-0.07c-0.044,0.196-0.125,0.384-0.23,0.553l0.044-0.054
		c-0.625,1.035-2.32,1.256-3.147,0.188c-1.347-1.722,0.026-3.584,0.224-5.411c0.241-2.293-1.196-4.513-2.981-5.842
		c0.981,1.588-0.312,3.682-1.346,4.86c-0.998,1.141-2.22,2.087-3.326,3.119c-1.186,1.106-2.327,2.275-3.308,3.576
		c-1.952,2.604-3.147,5.885-2.273,9.131C5.024,25.568,7.841,27.636,11.017,28.368L11.017,28.368z"/>
</g>
</svg>
