<?xml version="1.0" encoding="utf-8"?>
<!-- Generator: Adobe Illustrator 15.1.0, SVG Export Plug-In . SVG Version: 6.00 Build 0)  -->
<!DOCTYPE svg PUBLIC "-//W3C//DTD SVG 1.1//EN" "http://www.w3.org/Graphics/SVG/1.1/DTD/svg11.dtd">
<svg version="1.1" id="Layer_1" xmlns="http://www.w3.org/2000/svg" xmlns:xlink="http://www.w3.org/1999/xlink" x="0px" y="0px"
	 width="30px" height="30px" viewBox="0 0 30 30" enable-background="new 0 0 30 30" xml:space="preserve">
<g id="Layer_1_1_">
	<g>
		<path fill="#111111" d="M7.759,5.542h4.266v11.957c0,5.386-2.582,7.269-6.708,7.269c-1.01,0-2.3-0.172-3.144-0.447l0.478-3.456
			c0.591,0.198,1.346,0.339,2.19,0.339c1.797,0,2.918-0.813,2.918-3.734V5.542z"/>
		<path fill="#111111" d="M15.728,20.08c1.123,0.588,2.92,1.18,4.745,1.18c1.966,0,3.001-0.817,3.001-2.081
			c0-1.149-0.896-1.849-3.17-2.636c-3.144-1.123-5.221-2.862-5.221-5.641c0-3.228,2.723-5.668,7.158-5.668
			c2.161,0,3.706,0.42,4.829,0.953l-0.953,3.424c-0.731-0.365-2.108-0.897-3.932-0.897c-1.854,0-2.75,0.871-2.75,1.824
			c0,1.207,1.038,1.742,3.508,2.694c3.338,1.236,4.885,2.974,4.885,5.668c0,3.174-2.415,5.867-7.606,5.867
			c-2.163,0-4.296-0.589-5.364-1.177L15.728,20.08z"/>
	</g>
</g>
</svg>
