<?xml version="1.0" encoding="utf-8"?>
<!-- Generator: Adobe Illustrator 15.1.0, SVG Export Plug-In . SVG Version: 6.00 Build 0)  -->
<!DOCTYPE svg PUBLIC "-//W3C//DTD SVG 1.1//EN" "http://www.w3.org/Graphics/SVG/1.1/DTD/svg11.dtd">
<svg version="1.1" id="Layer_1" xmlns="http://www.w3.org/2000/svg" xmlns:xlink="http://www.w3.org/1999/xlink" x="0px" y="0px"
	 width="141px" height="79.828px" viewBox="0 0 141 79.828" enable-background="new 0 0 141 79.828" xml:space="preserve">
<g>
	<g>
		<path fill="#BE1E2D" d="M73.299,74.224v-2.721h10.926c0.575,0,0.989-0.08,1.242-0.242c0.254-0.161,0.381-0.489,0.381-0.98V69.5
			c0-0.449-0.127-0.77-0.381-0.957c-0.253-0.191-0.66-0.285-1.223-0.285h-6.854c-0.802,0-1.466-0.076-1.992-0.223
			c-0.527-0.148-0.947-0.373-1.256-0.676s-0.522-0.684-0.644-1.141c-0.119-0.454-0.181-0.992-0.181-1.611v-0.716
			c0-0.731,0.078-1.356,0.232-1.879c0.154-0.521,0.393-0.938,0.717-1.255c0.322-0.315,0.746-0.547,1.267-0.695
			c0.521-0.146,1.14-0.223,1.856-0.223h11.387v2.723H77.686c-0.492,0-0.854,0.096-1.086,0.284c-0.231,0.19-0.348,0.571-0.348,1.149
			v0.465c0,0.449,0.104,0.77,0.316,0.959c0.211,0.189,0.576,0.283,1.098,0.283h6.727c0.803,0,1.479,0.067,2.034,0.2
			c0.556,0.134,1.009,0.349,1.359,0.644c0.353,0.297,0.604,0.674,0.76,1.14c0.155,0.465,0.231,1.019,0.231,1.665v1.141
			c0,0.674-0.076,1.246-0.231,1.717c-0.153,0.472-0.407,0.855-0.76,1.148c-0.351,0.297-0.804,0.516-1.359,0.652
			c-0.556,0.144-1.231,0.214-2.034,0.214L73.299,74.224L73.299,74.224z"/>
		<path fill="#BE1E2D" d="M96.158,74.224c-1.055,0-1.934-0.088-2.637-0.266c-0.703-0.176-1.266-0.457-1.688-0.842
			c-0.422-0.389-0.721-0.894-0.896-1.519c-0.174-0.627-0.263-1.397-0.263-2.312v-4.512c0-0.9,0.089-1.666,0.263-2.299
			c0.176-0.633,0.476-1.143,0.896-1.529c0.422-0.388,0.984-0.667,1.688-0.844c0.703-0.176,1.582-0.264,2.637-0.264h5.462
			c1.067,0,1.954,0.088,2.657,0.264c0.701,0.177,1.267,0.456,1.687,0.844c0.422,0.387,0.722,0.896,0.896,1.529
			c0.177,0.633,0.266,1.396,0.266,2.299v4.512c0,0.914-0.089,1.685-0.266,2.312c-0.174,0.625-0.474,1.13-0.896,1.519
			c-0.42,0.385-0.983,0.666-1.687,0.842c-0.703,0.178-1.59,0.266-2.657,0.266H96.158z M103.918,64.923
			c0-0.449-0.039-0.822-0.115-1.115c-0.078-0.297-0.207-0.535-0.391-0.719s-0.432-0.311-0.747-0.381
			c-0.317-0.07-0.707-0.104-1.171-0.104h-5.188c-0.506,0-0.918,0.034-1.233,0.104c-0.316,0.07-0.565,0.197-0.747,0.381
			c-0.184,0.184-0.307,0.422-0.37,0.719c-0.063,0.293-0.097,0.666-0.097,1.115v4.238c0,0.465,0.033,0.848,0.097,1.149
			s0.187,0.541,0.37,0.718c0.182,0.176,0.431,0.295,0.747,0.358c0.315,0.063,0.729,0.094,1.233,0.094h5.188
			c0.464,0,0.854-0.03,1.171-0.094c0.315-0.063,0.563-0.183,0.747-0.358c0.184-0.177,0.313-0.416,0.391-0.718
			c0.076-0.304,0.115-0.687,0.115-1.149V64.923z"/>
		<path fill="#BE1E2D" d="M112.628,68.826v5.397h-3.187v-9.447c0-0.901,0.09-1.666,0.266-2.299c0.175-0.632,0.475-1.144,0.896-1.528
			c0.422-0.389,0.984-0.668,1.688-0.845c0.703-0.176,1.579-0.265,2.635-0.265h8.1v2.764h-8.014c-0.887,0-1.506,0.184-1.855,0.55
			c-0.354,0.363-0.527,0.97-0.527,1.813v1.139h10.273v2.721H112.628L112.628,68.826z"/>
		<path fill="#BE1E2D" d="M130.848,74.224v-11.62h-6.031v-2.763h15.289v2.763h-6.031v11.62H130.848z"/>
	</g>
	<path fill="#BE1E2D" d="M47.275,74.445v-3.783h7.246c0,0,0.61,2.256-2.036,3.783H47.275z"/>
	<rect x="28.292" y="64.082" fill="#BE1E2D" width="3.782" height="10.357"/>
	<path fill="#D63B27" d="M42.24,74.439h0.129C42.322,74.439,42.283,74.439,42.24,74.439L42.24,74.439z"/>
	<ellipse fill="#BE1E2D" cx="30.209" cy="61.746" rx="1.912" ry="1.912"/>
	<path fill="#BE1E2D" d="M24.62,59.496c0.07-2.154,0.783-4.506,2.244-7.123c7.267-13.015,12.907-21.965,9.544-29.485
		c0,0,6.024,6.03,7.907,8.306c4.06,4.902-1.538,12.734-7.157,22.794c-1.133,2.024-1.679,3.839-1.74,5.509H24.62z"/>
	<path fill="#BE1E2D" d="M40.738,59.841c0.052-1.483,0.511-3.098,1.458-4.897C46.912,46,50.564,39.85,48.384,34.682
		c0,0,3.911,4.146,5.134,5.708c2.626,3.367-1,8.751-4.646,15.668c-0.731,1.384-1.087,2.635-1.128,3.783H40.738z"/>
	<path fill="#D63B27" d="M49.38,74.457c0.008-0.012,0.008-0.018,0.008-0.018H49.38C49.38,74.445,49.38,74.451,49.38,74.457z"/>
	<path fill="#D63B27" d="M39.434,70.662c0-0.007,0.004-0.012,0.01-0.019c-0.01,0.007-0.01,0.012-0.018,0.019H39.434z"/>
	<path fill="#D63B27" d="M40.051,75.347c-0.195-0.286-0.354-0.585-0.491-0.907h-0.133C39.625,74.746,39.819,75.057,40.051,75.347z"
		/>
	<path fill="#D63B27" d="M49.389,74.439c0.01-0.014,0.01-0.034,0.013-0.047c-0.003,0.018-0.013,0.033-0.021,0.047H49.389z"/>
	<path fill="#BE1E2D" d="M44.471,77.714c-0.028,0-0.063-0.004-0.094-0.004c-1.806-0.03-3.389-0.965-4.326-2.363
		c-0.195-0.286-0.354-0.585-0.491-0.907h9.821c0.008-0.015,0.018-0.03,0.021-0.047c0.159-0.589,0.239-1.204,0.239-1.841
		c0-0.654-0.088-1.283-0.251-1.891c-0.091-0.351-0.216-0.695-0.363-1.029c-1.12-2.562-3.687-4.354-6.657-4.354
		c-3.361,0-6.19,2.285-7.022,5.383c-0.163,0.606-0.251,1.235-0.251,1.891c0,0.656,0.088,1.285,0.251,1.888
		c0.821,3.058,3.586,5.329,6.894,5.384c0.043,0,0.082,0.004,0.129,0.004c2.745,0,5.135-1.527,6.379-3.774
		c0.27-0.507,0.491-1.046,0.641-1.612c0,0,0,0.006-0.008,0.018c-0.072,0.166-0.15,0.33-0.244,0.488
		C48.235,76.595,46.482,77.714,44.471,77.714z M39.427,70.662c0.007-0.007,0.007-0.012,0.018-0.019
		c0.624-0.956,1.7-1.585,2.924-1.585c1.233,0,2.313,0.643,2.942,1.604h-5.876H39.427z"/>
	<path fill="#BE1E2D" d="M33.883,20.016C31.185,16.817,22.556,8.333,22.556,8.333L13.628,0c-0.521-0.004,4.157,8.202,4.157,8.202
		c4.818,10.576-3.255,23.166-13.669,41.473c-2.026,3.557-3.036,6.763-3.202,9.712H0.906l-0.01,15.051h4.761l0.011-15.051h0.007
		c0.167-2.949,1.176-6.155,3.2-9.712c8.43-14.819,15.325-25.891,15.091-35.182c0,0,4.079,4.246,5.158,5.522
		c5.817,6.897-2.205,17.907-10.254,32.063c-1.575,2.766-2.358,5.262-2.475,7.547l-0.011,14.944h4.759l0.011-14.944
		c0.117-2.285,0.903-4.781,2.476-7.547C31.681,37.923,39.702,26.913,33.883,20.016z"/>
	<path fill="#BE1E2D" d="M64.35,51.042c-0.269-0.471,0.565,0.485,1.097,1.472c1.014,1.878,1.152,2.907,1.148,4.25
		c-0.002,0.877-0.467,2.073-0.467,3.015c0,1.963,0,7.391,0,7.391c0,0.586-0.072,1.154-0.201,1.697
		c-0.773,3.194-3.647,5.573-7.072,5.573c-3.642,0-6.667-2.685-7.193-6.183c-0.048-0.358-0.079-0.719-0.079-1.09v-7.385
		c0.043-0.914,0.433-1.908,1.236-3.02c3.998-5.518,7.309-8.776,5.461-11.963c-0.157-0.313-0.218-0.461-0.209-0.483
		c0.016-0.049,1.709,2.978,2.076,4.058c0.771,2.264-1.102,5.228-3.853,9.203c-0.551,0.797-0.85,1.532-0.936,2.223l0.004,7.367
		c0,1.924,1.564,3.494,3.493,3.494c1.93,0,3.495-1.57,3.495-3.494v-7.39l0.007,0.009c0.016-0.476,0.164-0.99,0.466-1.568
		c1.51-2.861,2.581-4.859,1.877-6.483C64.623,51.553,64.494,51.291,64.35,51.042z"/>
</g>
</svg>
