<?xml version="1.0" encoding="utf-8"?>
<!-- Generator: Adobe Illustrator 15.1.0, SVG Export Plug-In . SVG Version: 6.00 Build 0)  -->
<!DOCTYPE svg PUBLIC "-//W3C//DTD SVG 1.1//EN" "http://www.w3.org/Graphics/SVG/1.1/DTD/svg11.dtd">
<svg version="1.1" id="Layer_1" xmlns="http://www.w3.org/2000/svg" xmlns:xlink="http://www.w3.org/1999/xlink" x="0px" y="0px"
	 width="114.5px" height="30px" viewBox="351 103.079 114.5 30" enable-background="new 351 103.079 114.5 30" xml:space="preserve"
	>
<g>
	<path fill="#00678F" d="M352.623,126.686h3.68v-14.588l5.771,12.686c0.634,1.522,1.586,2.093,3.425,2.093
		c1.839,0,2.663-0.57,3.362-2.093l5.707-12.686v14.588h3.68v-14.588c0-1.396-0.57-2.093-1.775-2.474
		c-2.791-0.824-4.695-0.127-5.52,1.776l-5.582,12.558l-5.454-12.558c-0.825-1.903-2.728-2.601-5.519-1.776
		c-1.205,0.381-1.776,1.015-1.776,2.474V126.686L352.623,126.686z"/>
	<path fill="#00678F" d="M381.293,109.611h3.68v7.992c0,0.444,0.127,1.459,2.156,1.522c1.078,0,7.992,0,8.055,0v-9.578h3.68
		c0,0,0,13.066,0,13.13c0,3.234-3.996,3.933-5.836,3.933H381.42v-2.475h11.67c2.348-0.254,2.094-1.458,2.094-1.839v-0.951h-7.865
		c-3.68,0-6.025-1.649-6.025-3.488C381.293,117.667,381.42,109.676,381.293,109.611L381.293,109.611z"/>
	<path fill="#E38D1A" d="M401.717,126.578h10.656c1.27,0,2.41-0.253,3.426-0.696c1.586-0.763,2.346-1.713,2.346-3.046v-2.728
		c0-1.078-0.887-2.029-2.6-2.727c-0.889-0.317-2.031-0.507-3.172-0.507h-4.439c-1.523,0-2.221-0.444-2.41-1.459
		c0-0.127,0-0.254,0-0.317v-1.649c0-0.063,0-0.19,0-0.317c0.189-0.761,0.57-0.951,1.902-1.078c0.127,0,0.254,0,0.316,0h10.529
		v-2.474h-10.338c-1.523,0-2.285,0.063-2.98,0.317c-2.158,0.697-3.172,1.775-3.172,3.679v2.03c0,1.648,1.84,3.107,5.01,3.424
		c0.318,0,0.699,0,1.078,0h3.807c0.127,0,0.254,0,0.381,0c1.143,0.127,1.648,0.318,2.029,0.762c0.254,0.254,0.254,0.443,0.254,0.698
		v2.155c0,0.255-0.191,0.572-0.508,0.889c-0.316,0.318-0.889,0.508-1.586,0.508c-0.127,0-0.254,0-0.381,0h-10.148V126.578
		L401.717,126.578z"/>
	<path fill="#E38D1A" d="M441.17,122.329c0,2.537,1.902,3.932,5.709,4.186c0.381,0,0.697,0.064,1.078,0.064h9.641v-2.475h-9.705
		c-2.156,0-2.98-0.508-2.98-1.84V109.58h-3.678L441.17,122.329L441.17,122.329z"/>
	<path fill="#E38D1A" d="M420.492,121.123v-8.753c0-2.22,1.586-3.615,4.693-3.996c0.318,0,0.697-0.063,1.016-0.063h7.041
		c0.381,0,0.695,0,1.078,0.063c3.107,0.444,4.629,1.776,4.629,3.996v8.753c0,1.84-0.633,2.79-2.156,3.427l3.615,3.297h-4.25
		l-2.916-2.664l-2.982,0.191h-3.934c-0.633,0-1.395-0.064-2.156-0.254C421.635,124.423,420.492,123.153,420.492,121.123
		L420.492,121.123z M424.488,120.933c0,0.127,0.064,0.255,0.064,0.381c0.189,1.016,1.141,1.586,2.6,1.586h3.361l-3.045-2.791h4.25
		l2.664,2.41c0.508-0.253,0.824-0.697,0.951-1.205c0-0.126,0-0.254,0-0.381v-8.371c0-0.128,0-0.254,0-0.317
		c-0.189-0.952-1.141-1.522-2.6-1.522h-5.582c-1.648,0-2.729,0.697-2.729,1.84L424.488,120.933L424.488,120.933z"/>
	<path fill="#E38D1A" d="M459.248,119.348h0.508v-2.093h0.697v-0.444h-1.967v0.444h0.762V119.348L459.248,119.348z M463.371,119.348
		h0.506v-2.473h-0.76l-0.635,1.713l-0.697-1.713h-0.762v2.473h0.508v-1.902l0,0l0.697,1.902h0.381l0.697-1.902l0,0L463.371,119.348
		L463.371,119.348z"/>
</g>
</svg>
