<?xml version="1.0" encoding="utf-8"?>
<!-- Generator: Adobe Illustrator 15.1.0, SVG Export Plug-In . SVG Version: 6.00 Build 0)  -->
<!DOCTYPE svg PUBLIC "-//W3C//DTD SVG 1.1//EN" "http://www.w3.org/Graphics/SVG/1.1/DTD/svg11.dtd">
<svg version="1.1" id="Layer_1" xmlns="http://www.w3.org/2000/svg" xmlns:xlink="http://www.w3.org/1999/xlink" x="0px" y="0px"
	 width="49.268px" height="30px" viewBox="0 0 49.268 30" enable-background="new 0 0 49.268 30" xml:space="preserve">
<g>
	<path d="M10.435,11.255c1.483,0,2.464,0.271,2.953,0.822c0.49,0.552,0.614,1.483,0.356,2.808c-0.27,1.384-0.784,2.365-1.556,2.966
		c-0.772,0.587-1.937,0.88-3.505,0.88H6.318l1.458-7.474h2.659V11.255z M0.959,26.306h3.896l0.92-4.757h3.333
		c1.472,0,2.684-0.155,3.627-0.465c0.956-0.305,1.815-0.818,2.588-1.556c0.65-0.6,1.176-1.264,1.58-1.985
		c0.405-0.725,0.687-1.521,0.857-2.391c0.418-2.119,0.098-3.761-0.93-4.951c-1.029-1.175-2.671-1.775-4.928-1.775H4.428
		L0.959,26.306z"/>
	<path d="M20.63,3.694h3.862l-0.92,4.754h3.443c2.171,0,3.652,0.381,4.474,1.128c0.823,0.761,1.066,1.974,0.735,3.665l-1.616,8.308
		h-3.925l1.532-7.902c0.173-0.896,0.111-1.508-0.196-1.838c-0.306-0.331-0.944-0.49-1.936-0.49h-3.09l-1.985,10.23h-3.859
		L20.63,3.694z"/>
	<path d="M40.807,11.255c1.48,0,2.46,0.271,2.954,0.822c0.487,0.552,0.61,1.483,0.351,2.808c-0.269,1.384-0.781,2.365-1.555,2.966
		c-0.773,0.587-1.937,0.88-3.504,0.88h-2.367l1.458-7.474h2.663V11.255z M31.331,26.306h3.896l0.918-4.757h3.335
		c1.471,0,2.685-0.155,3.627-0.465c0.956-0.305,1.816-0.818,2.586-1.556c0.649-0.6,1.177-1.264,1.58-1.985
		c0.404-0.725,0.687-1.521,0.857-2.391c0.416-2.119,0.099-3.761-0.931-4.951c-1.027-1.175-2.673-1.775-4.927-1.775h-7.486
		L31.331,26.306z"/>
</g>
</svg>
