<?xml version="1.0" encoding="utf-8"?>
<!-- Generator: Adobe Illustrator 15.1.0, SVG Export Plug-In . SVG Version: 6.00 Build 0)  -->
<!DOCTYPE svg PUBLIC "-//W3C//DTD SVG 1.1//EN" "http://www.w3.org/Graphics/SVG/1.1/DTD/svg11.dtd">
<svg version="1.1" id="Layer_1" xmlns="http://www.w3.org/2000/svg" xmlns:xlink="http://www.w3.org/1999/xlink" x="0px" y="0px"
	 width="30px" height="30px" viewBox="1 1 30 30" enable-background="new 1 1 30 30" xml:space="preserve">
<path fill="#21759B" d="M16,3.33C9.015,3.33,3.331,9.014,3.331,16c0,6.986,5.684,12.67,12.669,12.67
	c6.986,0,12.67-5.685,12.67-12.67C28.67,9.014,22.986,3.33,16,3.33z M4.609,16c0-1.652,0.354-3.219,0.987-4.635l5.433,14.887
	C7.229,24.405,4.609,20.508,4.609,16z M16,27.391c-1.118,0-2.197-0.163-3.217-0.464l3.417-9.931l3.501,9.593
	c0.023,0.056,0.051,0.107,0.082,0.157C18.6,27.163,17.327,27.391,16,27.391z M17.57,10.659c0.685-0.036,1.302-0.108,1.302-0.108
	c0.614-0.073,0.543-0.975-0.071-0.938c0,0-1.845,0.145-3.037,0.145c-1.12,0-3-0.145-3-0.145c-0.614-0.037-0.687,0.901-0.073,0.938
	c0,0,0.582,0.072,1.195,0.108l1.774,4.864l-2.493,7.476L9.021,10.659c0.687-0.036,1.304-0.108,1.304-0.108
	c0.612-0.073,0.541-0.975-0.073-0.938c0,0-1.845,0.145-3.037,0.145c-0.214,0-0.466-0.005-0.733-0.015
	C8.521,6.65,12.021,4.609,16,4.609c2.966,0,5.666,1.133,7.692,2.991c-0.049-0.004-0.097-0.01-0.148-0.01
	c-1.117,0-1.913,0.975-1.913,2.023c0,0.938,0.543,1.732,1.12,2.671c0.433,0.758,0.939,1.733,0.939,3.142
	c0,0.974-0.376,2.105-0.867,3.682l-1.137,3.795L17.57,10.659z M25.996,10.535c0.889,1.624,1.395,3.485,1.395,5.465
	c0,4.203-2.277,7.872-5.663,9.847l3.479-10.06c0.649-1.625,0.865-2.924,0.865-4.079C26.072,11.287,26.046,10.898,25.996,10.535z"/>
</svg>
