<?xml version="1.0" standalone="no"?>
<!DOCTYPE svg PUBLIC "-//W3C//DTD SVG 1.1//EN" "http://www.w3.org/Graphics/SVG/1.1/DTD/svg11.dtd" >
<svg xmlns="http://www.w3.org/2000/svg">
<metadata>Generated by IcoMoon</metadata>
<defs>
<font id="icomoon" horiz-adv-x="1024">
<font-face units-per-em="1024" ascent="960" descent="-64" />
<missing-glyph horiz-adv-x="1024" />
<glyph unicode="&#x20;" horiz-adv-x="512" d="" />
<glyph unicode="&#xe900;" glyph-name="codeigniter" horiz-adv-x="862" d="M286.989-60.968c-60.632 26.274-117.221 92.632-117.221 160.674 0 74.105 46.821 137.095 105.432 178.526-7.074-26.611-10.779-50.863 6.4-74.779 16.168-22.232 44.463-33.011 71.411-26.947 62.653 13.811 65.347 82.526 28.295 122.611-36.716 40.084-72.084 84.884-57.937 142.484 7.074 28.968 24.589 55.916 47.158 75.116-17.179-45.474 31.663-89.937 64-112.505 55.916-38.737 117.558-67.705 169.095-113.179 54.232-47.495 94.316-112.168 86.232-186.611-8.758-80.842-73.095-137.095-145.179-165.726 152.589 33.684 309.895 151.916 313.263 321.011 2.695 139.116-92.632 246.232-210.863 307.537l-6.063 3.368c3.368-7.747 4.379-14.484 4.042-20.547 1.011 4.379 1.684 9.095 2.021 13.811 0-5.726-0.674-11.453-2.021-16.505l0.337 2.695c-1.684-7.411-4.716-14.484-8.758-20.884l1.684 2.021c-23.579-39.074-87.579-47.495-118.905-7.074-50.863 65.011 1.011 135.411 8.421 204.463 9.095 86.568-45.137 170.442-112.505 220.632 37.053-59.958-11.789-139.116-50.863-183.579-37.726-43.116-83.874-78.821-125.642-117.895-44.8-41.768-87.916-85.895-124.968-135.074-73.768-98.358-118.905-222.316-85.895-344.926 32.674-122.947 139.116-201.095 259.032-228.716v0z" />
<glyph unicode="&#xe901;" glyph-name="css" d="M932 828.092l-126.374-633.324-382.006-126.86-331.62 126.86 33.73 169.134h141.114l-13.784-69.842 200.498-76.492 230.902 76.492 32.316 161.074h-573.938l27.552 141.098h574.41l18.064 90.762h-573.94l28.022 141.098h715.054z" />
<glyph unicode="&#xe902;" d="M876.064 35.552l-364.032-99.552-364.032 99.552-84 924.448h896.064z" />
<glyph unicode="&#xe903;" d="M512 896v-888l295.424 87.744 78.592 800.256z" />
<glyph unicode="&#xe904;" d="M779.616 768h-536.192l12.576-128 19.808-224h348.288l-11.36-127.488-100.736-32.192-100.576 32.192-6.688 63.488h-123.040l14.688-159.584 215.616-64.096 215.296 64.128 31.68 351.552h-366.912l-8 96h383.936z" />
<glyph unicode="&#xe905;" horiz-adv-x="3789" d="M1657.299 483.248l0.006 0.032-21.469-76.084 21.463 76.053z" />
<glyph unicode="&#xe906;" horiz-adv-x="3789" d="M1767.726 318.054v0z" />
<glyph unicode="&#xe907;" horiz-adv-x="3789" d="M1761.642 204.418h0.016l-141.741-0.512 141.725 0.512z" />
<glyph unicode="&#xe908;" horiz-adv-x="3789" d="M1791.351 317.92v0z" />
<glyph unicode="&#xe909;" horiz-adv-x="3789" d="M1774.067 214.076v0z" />
<glyph unicode="&#xe90a;" horiz-adv-x="3789" d="M2295.941 647.734v0z" />
<glyph unicode="&#xe90b;" horiz-adv-x="3789" d="M2177.72 647.734v0z" />
<glyph unicode="&#xe90c;" horiz-adv-x="3789" d="M2288.071 657.468h-98.371c-5.457 0-10.863-4.376-12.024-9.709l-69.839-323.094c-1.158-5.327-6.561-9.699-12.018-9.699h-69.616c-68.878 0-60.918 47.641-46.796 112.907 0.134 0.646 0.273 1.301 0.407 1.965l1.552 8.227c0.105 0.537 0.2 1.069 0.283 1.539l3.161 16.756 3.365 17.952c1.024 5.403 2.573 13.315 3.597 18.298l15.866 77.557 15.894 77.566c1.104 5.349-2.493 9.738-7.963 9.738h-100.943c-5.454 0-10.866-4.385-11.976-9.725l-43.421-205.951c-0.016-0.057-0.029-0.124-0.029-0.156l-2.019-9.572c-25.008-114.147-18.375-223.003 117.512-226.409 2.226-0.060 3.953-0.083 3.953-0.083h213.291c5.46 0 10.866 4.392 11.992 9.722l46.010 216.22 45.985 216.236c1.148 5.33-2.395 9.715-7.852 9.715v0z" />
<glyph unicode="&#xe90d;" horiz-adv-x="3789" d="M2680.441 313.824c5.463 0 9.047-4.366 7.947-9.718l-9.55-46.672z" />
<glyph unicode="&#xe90e;" horiz-adv-x="3789" d="M2669.304 210.715l9.537 46.71-9.556-46.713c0 0.003 0.019 0.003 0.019 0.003v0z" />
<glyph unicode="&#xe90f;" horiz-adv-x="3789" d="M2657.318 200.904c0.025 0 0.048 0.016 0.064 0.016-28.961-0.229-115.947-0.897-181.324-0.897 79.564 0 181.261 0.865 181.261 0.865v0.016z" />
<glyph unicode="&#xe910;" horiz-adv-x="3789" d="M2417.378 373.96c-0.070 5.107 5.753 13.923 11.21 13.923l-12.291 0.2c-5.518-55.678 1.081-14.123 1.081-14.123v0z" />
<glyph unicode="&#xe911;" horiz-adv-x="3789" d="M2485.019 200.046c-0.63 0-1.272 0-1.883-0.013 0.611 0.013 1.266 0.013 1.883 0.013z" />
<glyph unicode="&#xe912;" horiz-adv-x="3789" d="M2680.441 313.824c5.463 0 9.047-4.366 7.947-9.718l-9.55-46.672-1.574-7.607z" />
<glyph unicode="&#xe913;" horiz-adv-x="3789" d="M2531.601 200.157v0z" />
<glyph unicode="&#xe914;" horiz-adv-x="3789" d="M2507.439 200.084v0z" />
<glyph unicode="&#xe915;" horiz-adv-x="3789" d="M2500.074 200.058c-0.773 0-1.533 0-2.318-0.013 0.782 0.013 1.546 0.013 2.318 0.013z" />
<glyph unicode="&#xe916;" horiz-adv-x="3789" d="M2492.588 200.046v0z" />
<glyph unicode="&#xe917;" horiz-adv-x="3789" d="M2506.020 200.084c-1.997 0-3.982-0.025-5.947-0.025 1.975 0 3.962 0.025 5.947 0.025z" />
<glyph unicode="&#xe918;" horiz-adv-x="3789" d="M2531.197 200.157c-7.957-0.032-15.897-0.073-23.73-0.073 7.845 0 15.78 0.045 23.73 0.073z" />
<glyph unicode="&#xe919;" horiz-adv-x="3789" d="M2657.388 200.92v0c-21.208-0.153-73.604-0.563-125.838-0.747 52.221 0.175 104.61 0.572 125.838 0.747z" />
<glyph unicode="&#xe91a;" horiz-adv-x="3789" d="M2669.304 210.699l7.988 39.125-8.008-39.147c0 0.006 0.019 0.006 0.019 0.032v-0.010z" />
<glyph unicode="&#xe91b;" horiz-adv-x="3789" d="M2497.758 200.046v0z" />
<glyph unicode="&#xe91c;" horiz-adv-x="3789" d="M2483.104 200.033v0z" />
<glyph unicode="&#xe91d;" horiz-adv-x="3789" d="M2490.54 200.046v0z" />
<glyph unicode="&#xe91e;" horiz-adv-x="3789" d="M1051.772 372.777l15.274 67.737-17.468-77.423-2.067-9.725c1.135 5.349 3.053 14.085 4.261 19.411v0z" />
<glyph unicode="&#xe91f;" horiz-adv-x="3789" d="M1234.635 658.597h-108.019c-5.467 0-10.908-4.366-12.139-9.677l-20.48-90.424c-1.202-5.317 2.277-9.68 7.74-9.68h108.852c5.46 0 10.889 4.369 12.059 9.706l9.903 45.212 9.9 45.17v0.013c1.158 5.314-2.356 9.68-7.817 9.68v0z" />
<glyph unicode="&#xe920;" horiz-adv-x="3789" d="M1211.134 508.216v0.013l-31.674-146.575 31.674 146.562z" />
<glyph unicode="&#xe921;" horiz-adv-x="3789" d="M897.345 22.608c0 0 54.456-0.687 89.063-0.687-26.284 0-69.718 0.467-89.104 0.687 0.016 0 0.029 0 0.041 0v0z" />
<glyph unicode="&#xe922;" horiz-adv-x="3789" d="M1082.33 508.241v0z" />
<glyph unicode="&#xe923;" horiz-adv-x="3789" d="M1203.311 517.94h-108.865c-5.46 0-10.917-4.366-12.113-9.699l-15.293-67.73-15.274-67.724c-1.202-5.324-3.136-14.066-4.265-19.415l-14.699-69.13-14.686-69.13c-1.145-5.327-3.489-13.945-5.234-19.116 0 0-20.337-60.527-54.533-59.837-1.453 0.029-2.862 0.048-4.268 0.073-16.562 0.328-29.588 0.56-29.588 0.56h-0.022c-5.441 0.086-10.933-4.176-12.199-9.474l-22.576-94.911c-1.269-5.311 2.162-9.687 7.575-9.773 19.396-0.213 62.823-0.709 89.113-0.709 85.409 0 130.436 47.308 159.283 183.461l33.782 156.274 31.671 146.575c1.17 5.336-2.353 9.69-7.81 9.703v0z" />
<glyph unicode="&#xe924;" horiz-adv-x="3789" d="M2749.812 205.566c-5.47 0-9.012 4.382-7.849 9.731l81.885 383.596z" />
<glyph unicode="&#xe925;" horiz-adv-x="3789" d="M2863.616 215.304v0z" />
<glyph unicode="&#xe926;" horiz-adv-x="3789" d="M2743.146 210.429c-0.671 2.671-0.28 9.216 0.878 14.575l38.883 182.084-40.963-191.8c-1.145-5.339 2.407-9.728 7.868-9.728h9.944c-5.473 0.006-15.926 2.188-16.61 4.869v0z" />
<glyph unicode="&#xe927;" horiz-adv-x="3789" d="M2857.157 207.748c-2.97-1.193-9.877-2.182-15.354-2.182h9.954c5.451 0 10.822 4.382 11.894 9.747l1.984 9.734c-1.091-5.362-5.511-16.088-8.478-17.3v0z" />
<glyph unicode="&#xe928;" horiz-adv-x="3789" d="M2880.219 297.17l14.625 72.256c-0.022-0.048-0.022-0.114-0.032-0.14l-14.594-72.116z" />
<glyph unicode="&#xe929;" horiz-adv-x="3789" d="M3203.345 573.195l4.516-18.648c1.243-5.339-2.197-9.658-7.655-9.671z" />
<glyph unicode="&#xe92a;" horiz-adv-x="3789" d="M2865.61 225.022v0z" />
<glyph unicode="&#xe92b;" horiz-adv-x="3789" d="M3198.874 592.285v0z" />
<glyph unicode="&#xe92c;" horiz-adv-x="3789" d="M2894.813 369.425c1.081 5.352 2.9 14.028 4.026 19.297l-2.070-9.706-1.956-9.591z" />
<glyph unicode="&#xe92d;" horiz-adv-x="3789" d="M2825.194 605.174c-1.094-5.158-2.471-11.681-3.396-15.996l-38.864-182.075 42.261 198.071z" />
<glyph unicode="&#xe92e;" horiz-adv-x="3789" d="M3207.836 554.547l-4.516 18.648-4.471 19.090-2.271 9.668c-8.828 34.345-34.791 54.18-91.149 54.18l-259.504 0.184c-5.448 0-10.844-4.363-11.973-9.706v0l-4.032-18.995-4.729-22.448-1.329-6.284-40.947-191.803-38.855-182.091c-1.161-5.359-1.536-11.89-0.887-14.562 0.658-2.681 11.14-4.866 16.61-4.866h82.009c5.47 0 12.396 0.983 15.36 2.188 2.964 1.199 7.372 11.938 8.469 17.274l14.581 72.138 14.597 72.122c0 0.022 0.016 0.092 0.025 0.134l1.946 9.598 33.315 156.049c1.148 5.317 6.526 9.668 11.97 9.677l258.127 0.127c5.451 0.022 8.892 4.347 7.655 9.677v0z" />
<glyph unicode="&#xe92f;" horiz-adv-x="3789" d="M3540.13 723.1c-5.476-0.045-14.412-0.086-19.879-0.086h-82.616c-5.479 0-12.469-3.692-15.548-8.189l-182.689-267.658c-3.085-4.522-6.608-3.842-7.833 1.472l-13.426 58.969c-1.218 5.333-6.691 9.674-12.135 9.674h-117.448c-5.47 0-8.704-4.284-7.209-9.534l52.631-184.365c1.498-5.254 1.606-13.897 0.258-19.183l-22.948-89.237c-1.355-5.279 2.013-9.617 7.486-9.617h116.062c5.454 0 11.041 4.338 12.39 9.617l22.964 89.237c1.358 5.285 5.155 13.198 8.434 17.564l296.591 393.645c3.291 4.369 1.507 7.906-3.947 7.874l-31.137-0.184z" />
<glyph unicode="&#xe930;" horiz-adv-x="3789" d="M2607.037 492.197v0.114c-0.681-5.928-6.157-10.269-11.614-10.269h-148.909c-5.149 0-7.763 3.501-7.009 7.814 0.054 0.13 0.067 0.239 0.14 0.343 0 0-0.057-0.016-0.099-0.041 0.032 0.178 0.032 0.331 0.086 0.499 0 0 0.283 1.049 0.69 2.541 14.199 37.815 43.186 62.623 97.627 62.623 61.287-0.019 73.248-29.963 69.088-63.625v0zM2563.352 664.064c-191.129 0-236.433-116.008-261.839-233.094-25.406-119.337-23.205-230.934 174.57-230.934h7.022c0.636 0.019 1.256 0.019 1.889 0.019h12.762c0.776 0.013 1.546 0.013 2.315 0.013 1.981 0 3.972 0.016 5.963 0.016h1.409c7.817 0.010 15.764 0.048 23.721 0.076h0.398c52.243 0.197 104.629 0.614 125.86 0.766 5.403 0.083 10.72 4.455 11.84 9.766l8.017 39.128 1.539 7.62 9.563 46.668c1.107 5.359-2.477 9.725-7.944 9.725h-177.801c-70.72 0-91.724 18.807-83.99 74.049l284.208-0.029c0.076 0 0.146 0.029 0.2 0.029 4.509 0.076 8.704 3.196 10.345 7.337 0.315 0.795 0.592 1.622 0.687 2.471l-0.041-0.029c42.207 159.194 30.113 266.402-150.69 266.402v0z" />
<glyph unicode="&#xe931;" horiz-adv-x="3789" d="M1659.993 492.805l-2.687-9.524c0-0.032-0.006-0.032-0.006-0.032l-42.925-152.112c-1.482-5.244-7.162-9.55-12.635-9.55h-113.604c-86.156 0-107.145 67.39-86.156 166.804 20.973 101.675 62.105 164.877 146.912 171.285 115.906 8.729 139.083-72.78 111.101-166.871v0zM1737.9 327.438c0 0 53.556 130.042 65.72 205.156 16.591 100.565-33.754 246.377-228.209 246.377-193.355 0-277.31-139.223-309.353-290.584-32.037-152.439 9.944-286.138 202.189-285.044l293.411 1.075c5.467 0.060 11.038 4.373 12.434 9.655l24.687 94.179c1.377 5.289-1.962 9.629-7.413 9.661l-47.323 0.277c-4.646 0.045-7.298 3.031-6.748 7.022 0.108 0.735 0.27 1.472 0.604 2.226v0z" />
<glyph unicode="&#xe932;" horiz-adv-x="3789" d="M2695.031 414.481c0-3.6-2.907-6.516-6.519-6.516-3.59 0-6.522 2.916-6.522 6.516 0 3.594 2.932 6.51 6.522 6.51 3.606 0 6.519-2.916 6.519-6.51z" />
<glyph unicode="&#xe933;" horiz-adv-x="3789" d="M261.514 583.569c-53.388-76.743-46.741-176.564-5.963-258.099 0.976-1.965 1.984-3.889 2.992-5.81 0.633-1.215 1.243-2.452 1.914-3.66 0.382-0.728 0.795-1.437 1.189-2.115 0.69-1.31 1.406-2.547 2.121-3.807 1.269-2.239 2.573-4.459 3.896-6.672 0.735-1.231 1.463-2.436 2.22-3.67 1.472-2.379 2.977-4.726 4.516-7.066 0.642-0.995 1.266-2.003 1.921-2.961 2.131-3.167 4.306-6.344 6.545-9.455 0.060-0.080 0.13-0.165 0.188-0.242 0.359-0.496 0.747-0.995 1.1-1.498 1.94-2.668 3.943-5.311 5.963-7.922 0.751-0.964 1.504-1.908 2.252-2.865 1.8-2.267 3.641-4.525 5.511-6.78 0.696-0.836 1.396-1.673 2.102-2.503 2.503-2.948 5.069-5.89 7.68-8.771 0.045-0.067 0.111-0.114 0.156-0.159 0.105-0.127 0.197-0.2 0.289-0.315 2.554-2.789 5.155-5.521 7.807-8.249 0.82-0.843 1.66-1.673 2.496-2.522 2.051-2.054 4.131-4.074 6.23-6.115 0.855-0.795 1.701-1.635 2.554-2.417 2.808-2.636 5.642-5.238 8.539-7.756 0.048-0.070 0.083-0.111 0.14-0.127 0.49-0.436 0.995-0.855 1.485-1.263 2.55-2.194 5.145-4.398 7.756-6.548 1.062-0.878 2.14-1.724 3.209-2.573 2.14-1.701 4.3-3.393 6.468-5.047 1.151-0.894 2.299-1.765 3.46-2.643 2.398-1.749 4.812-3.495 7.248-5.18 0.9-0.652 1.749-1.275 2.649-1.886 0.245-0.181 0.467-0.359 0.719-0.522 2.318-1.596 4.678-3.142 7.044-4.668 1.018-0.681 2.032-1.374 3.056-2.038 3.625-2.29 7.305-4.548 11.029-6.748 1.011-0.588 2.035-1.145 3.047-1.727 2.735-1.581 5.489-3.126 8.275-4.646 1.511-0.811 3.059-1.571 4.583-2.353 1.978-1.027 3.927-2.077 5.925-3.075 0.455-0.223 0.929-0.442 1.374-0.668 0.798-0.385 1.609-0.773 2.423-1.164 3.101-1.485 6.239-2.945 9.391-4.344 0.671-0.299 1.323-0.598 1.988-0.887 3.609-1.577 7.267-3.113 10.952-4.56 0.884-0.363 1.781-0.69 2.668-1.053 3.409-1.313 6.866-2.617 10.335-3.826 0.442-0.149 0.862-0.299 1.304-0.436 3.81-1.342 7.655-2.579 11.525-3.772 0.922-0.277 1.857-0.579 2.786-0.852 3.94-1.186 7.826-2.608 11.897-3.361 258.185-47.082 333.178 155.158 333.178 155.158-62.992-82.060-174.789-103.691-280.725-79.605-4.016 0.897-7.903 2.143-11.821 3.311-0.999 0.296-1.968 0.598-2.951 0.9-3.826 1.167-7.604 2.401-11.382 3.698-0.518 0.184-1.037 0.382-1.561 0.572-3.38 1.18-6.71 2.446-10.043 3.714-0.941 0.375-1.879 0.725-2.818 1.107-3.644 1.437-7.263 2.938-10.835 4.509-0.744 0.312-1.447 0.633-2.169 0.96-3.069 1.393-6.115 2.792-9.149 4.249-0.871 0.42-1.749 0.843-2.636 1.263-2.372 1.158-4.729 2.388-7.066 3.603-1.577 0.824-3.164 1.606-4.716 2.458-2.872 1.53-5.677 3.139-8.481 4.757-0.948 0.541-1.905 1.046-2.862 1.584-3.721 2.197-7.407 4.484-11.038 6.777-1.005 0.636-1.988 1.313-2.983 1.981-2.636 1.698-5.263 3.435-7.842 5.231-0.865 0.569-1.692 1.202-2.531 1.775-2.496 1.765-4.964 3.565-7.422 5.368-1.11 0.817-2.201 1.67-3.295 2.477-2.242 1.733-4.484 3.457-6.697 5.238-0.999 0.795-2.007 1.603-2.986 2.391-2.818 2.328-5.594 4.649-8.345 7.028-0.28 0.254-0.601 0.499-0.91 0.76-2.967 2.617-5.886 5.295-8.768 7.982-0.84 0.805-1.654 1.568-2.471 2.382-2.143 2.032-4.239 4.083-6.306 6.176-0.82 0.817-1.657 1.647-2.465 2.461-2.633 2.687-5.206 5.416-7.734 8.189-0.127 0.134-0.258 0.261-0.385 0.394-2.674 2.935-5.289 5.921-7.849 8.939-0.69 0.824-1.367 1.628-2.054 2.442-1.905 2.293-3.797 4.618-5.632 6.974-0.69 0.84-1.393 1.711-2.070 2.573-2.22 2.888-4.392 5.756-6.522 8.685-58.816 80.219-79.945 190.871-32.94 281.737z" />
<glyph unicode="&#xe934;" horiz-adv-x="3789" d="M427.231 648.217c-38.61-55.569-36.511-129.94-6.389-188.699 5.056-9.839 10.727-19.408 17.077-28.497 5.778-8.297 12.189-18.159 19.866-24.815 2.789-3.066 5.692-6.055 8.672-8.984 0.754-0.779 1.523-1.511 2.29-2.274 2.875-2.786 5.81-5.54 8.847-8.205 0.124-0.111 0.239-0.232 0.356-0.321 0.041-0.041 0.076-0.057 0.092-0.092 3.352-2.942 6.818-5.759 10.339-8.548 0.776-0.595 1.549-1.228 2.344-1.841 3.53-2.684 7.127-5.368 10.819-7.893 0.102-0.076 0.197-0.14 0.302-0.245 1.631-1.107 3.298-2.166 4.942-3.231 0.795-0.518 1.546-1.062 2.341-1.549 2.63-1.682 5.292-3.33 8.011-4.904 0.388-0.245 0.76-0.432 1.129-0.658 2.337-1.348 4.71-2.674 7.088-3.966 0.827-0.464 1.666-0.884 2.519-1.32 1.638-0.862 3.279-1.72 4.951-2.563 0.248-0.124 0.502-0.232 0.747-0.347 3.406-1.67 6.84-3.282 10.342-4.815 0.741-0.315 1.52-0.617 2.29-0.941 2.792-1.18 5.619-2.344 8.465-3.438 1.212-0.455 2.423-0.9 3.635-1.336 2.576-0.951 5.174-1.825 7.788-2.706 1.18-0.382 2.331-0.76 3.514-1.123 3.711-1.158 7.384-2.617 11.248-3.253 199.349-33.032 245.366 120.454 245.366 120.454-41.485-59.735-121.821-88.258-207.551-66.007-3.803 0.999-7.556 2.083-11.283 3.266-1.138 0.347-2.264 0.719-3.393 1.094-2.649 0.862-5.279 1.781-7.896 2.719-1.199 0.426-2.398 0.875-3.571 1.329-2.862 1.097-5.699 2.232-8.504 3.428-0.766 0.331-1.536 0.626-2.293 0.97-3.517 1.52-6.98 3.148-10.399 4.824-1.755 0.862-3.482 1.771-5.215 2.646-0.995 0.531-2.003 1.049-3.015 1.568-2.21 1.193-4.42 2.442-6.602 3.708-0.515 0.302-1.053 0.582-1.574 0.906-2.706 1.577-5.368 3.19-7.995 4.872-0.814 0.515-1.59 1.088-2.407 1.616-1.733 1.123-3.47 2.267-5.174 3.422-3.673 2.531-7.257 5.193-10.781 7.88-0.805 0.649-1.635 1.263-2.42 1.918-37.535 29.629-67.266 70.115-81.414 116.024-14.826 47.613-11.633 101.068 14.047 144.441z" />
<glyph unicode="&#xe935;" horiz-adv-x="3789" d="M566.609 696.524c-22.76-33.499-24.999-75.102-9.203-112.096 16.654-39.268 50.777-70.064 90.611-84.671 1.644-0.62 3.285-1.161 4.955-1.733 0.722-0.219 1.447-0.464 2.182-0.687 2.341-0.738 4.672-1.59 7.095-2.048 110.064-21.265 139.925 56.485 147.869 67.931-26.15-37.649-70.096-46.691-124.022-33.601-4.265 1.040-8.946 2.576-13.048 4.026-5.266 1.876-10.453 4.020-15.5 6.437-9.566 4.598-18.699 10.183-27.161 16.568-48.249 36.616-78.228 106.464-46.745 163.35z" />
<glyph unicode="&#xe936;" glyph-name="js" d="M224.31 824.712h168.424v-472.038c0-212.75-101.938-286.994-264.828-286.994-39.888 0-90.858 6.648-124.104 17.728l18.838 136.292c23.27-7.756 53.188-13.296 86.428-13.296 70.916 0 115.242 32.136 115.242 147.374v470.934zM538.968 250.732c44.322-23.27 115.24-46.54 187.264-46.54 77.566 0 118.564 32.132 118.564 81.996 0 45.43-35.458 73.13-125.212 104.158-124.106 44.324-206.1 113.024-206.1 222.72 0 127.43 107.482 223.834 282.556 223.834 85.324 0 146.264-16.626 190.59-37.676l-37.678-135.184c-28.808 14.402-83.106 35.458-155.124 35.458-73.134 0-108.594-34.35-108.594-72.026 0-47.648 40.998-68.698 138.512-106.376 131.856-48.756 192.8-117.456 192.8-223.83 0-125.212-95.294-231.588-300.286-231.588-85.324 0-169.54 23.272-211.64 46.54l34.348 138.514z" />
<glyph unicode="&#xe937;" horiz-adv-x="3174" d="M290.318 246.914h92.775v367.864l145.545-319.881c15.991-38.392 39.992-52.779 86.366-52.779s67.183 14.387 84.775 52.779l143.945 319.881v-367.864h92.783v367.864c0 35.192-14.4 52.792-44.796 62.383-70.375 20.792-118.358 3.204-139.149-44.783l-140.758-316.69-137.545 316.69c-20.8 47.987-68.783 65.575-139.158 44.783-30.383-9.591-44.787-25.583-44.787-62.383v-367.864h0.004z" />
<glyph unicode="&#xe938;" horiz-adv-x="3174" d="M1013.273 546.004h92.775v-201.532c0-11.196 3.196-36.792 54.383-38.392 27.183 0 201.532 0 203.132 0v241.524h92.762c0 0 0-329.486 0-331.086 0-81.575-100.762-99.17-147.141-99.17h-292.707v62.388h294.285c59.187 6.4 52.8 36.783 52.8 46.374v23.996h-198.345c-92.766 0-151.945 41.592-151.945 87.97 0 4.8 3.204 206.328 0 207.928v0z" />
<glyph unicode="&#xe939;" horiz-adv-x="3174" d="M1528.308 246.914h268.711c31.987 0 60.77 6.391 86.366 17.587 39.983 19.2 59.179 43.183 59.179 76.783v68.77c0 27.192-22.396 51.179-65.579 68.77-22.392 8.004-51.187 12.8-79.966 12.8h-111.958c-38.392 0-55.983 11.196-60.792 36.783 0 3.2 0 6.409 0 8v41.583c0 1.604 0 4.804 0 8.004 4.804 19.187 14.391 23.983 47.992 27.192 3.183 0 6.391 0 7.991 0h265.503v62.375h-260.698c-38.392 0-57.592-1.591-75.179-7.991-54.383-17.6-79.979-44.787-79.979-92.77v-51.187c0-41.583 46.387-78.366 126.358-86.37 8.004 0 17.6 0 27.192 0h95.975c3.196 0 6.391 0 9.604 0 28.787-3.191 41.574-8.004 51.179-19.2 6.4-6.4 6.4-11.196 6.4-17.587v-54.379c0-6.404-4.796-14.413-12.796-22.396-8.004-8-22.396-12.796-39.992-12.796-3.196 0-6.391 0-9.596 0h-255.911v-63.97h-0.004z" />
<glyph unicode="&#xe93a;" horiz-adv-x="3174" d="M2523.174 355.663c0-63.966 47.979-99.157 143.941-105.558 9.596 0 17.6-1.6 27.2-1.6h243.107v62.383h-244.715c-54.379 0-75.17 12.796-75.17 46.379v319.89h-92.766l-1.596-321.494z" />
<glyph unicode="&#xe93b;" horiz-adv-x="3174" d="M2001.738 352.48v220.715c0 55.974 39.992 91.166 118.366 100.77 8.004 0 17.587 1.591 25.596 1.591h177.541c9.587 0 17.578 0 27.183-1.591 78.366-11.196 116.766-44.796 116.766-100.77v-220.715c0-46.396-15.991-70.383-54.383-86.379l91.166-83.175h-107.171l-73.562 67.179-75.192-4.804h-99.166c-15.991 0-35.192 1.613-54.379 6.409-63.962 17.587-92.766 49.574-92.766 100.77v0zM2102.509 357.268c0-3.196 1.604-6.404 1.604-9.587 4.796-25.596 28.783-40 65.575-40h84.77l-76.775 70.383h107.171l67.179-60.783c12.787 6.4 20.792 17.6 23.983 30.396 0 3.183 0 6.391 0 9.587v211.128c0 3.204 0 6.404 0 7.996-4.796 23.996-28.783 38.387-65.575 38.387h-140.753c-41.592 0-68.788-17.596-68.788-46.379l1.609-211.128z" />
<glyph unicode="&#xe93c;" horiz-adv-x="3174" d="M2979.021 246.914h12.787v52.779h17.596v11.196h-49.583v-11.196h19.2v-52.779zM3082.975 246.914h12.8v62.37h-19.191l-16-43.183-17.596 43.183h-19.191v-62.37h12.8v47.979l17.587-47.979h9.604l17.587 47.979 1.6-47.979z" />
<glyph unicode="&#xe93d;" glyph-name="php" horiz-adv-x="1811" d="M405.139 561.139c50.417 0 84.019-9.303 100.824-27.921 16.785-18.611 20.783-50.566 11.998-95.84-9.176-47.153-26.84-80.802-53.030-100.968s-66.044-30.24-119.55-30.24h-80.723l49.555 254.967h90.925zM81.796 48.073h132.712l31.475 161.963h113.673c50.159 0 91.415 5.261 123.806 15.812 32.395 10.528 61.833 28.188 88.333 52.988 22.236 20.448 40.228 42.993 54.007 67.65 13.766 24.64 23.544 51.836 29.323 81.587 14.044 72.213 3.45 128.459-31.755 168.76-35.198 40.296-91.206 60.442-167.976 60.442h-255.196l-118.402-609.203zM752.591 819.243h131.665l-31.479-161.965h117.299c73.798 0 124.704-12.879 152.719-38.616 28.015-25.749 36.41-67.467 25.205-125.135l-55.085-283.492h-133.743l52.369 269.551c5.963 30.662 3.776 51.576-6.571 62.731-10.355 11.153-32.38 16.734-66.065 16.734h-105.227l-67.823-349.015h-131.665l118.402 609.207zM1440.952 561.139c50.419 0 84.021-9.303 100.828-27.921 16.783-18.611 20.781-50.566 11.991-95.84-9.175-47.153-26.837-80.802-53.032-100.968-26.184-20.166-66.044-30.24-119.544-30.24h-80.723l49.553 254.967h90.927zM1117.617 48.073h132.706l31.473 161.963h113.664c50.163 0 91.426 5.261 123.817 15.812 32.392 10.528 61.83 28.188 88.333 52.988 22.236 20.448 40.232 42.993 54.007 67.65 13.766 24.64 23.55 51.836 29.316 81.587 14.052 72.213 3.45 128.459-31.748 168.76-35.209 40.296-91.211 60.442-167.976 60.442h-255.191l-118.402-609.203z" />
<glyph unicode="&#xe93e;" glyph-name="wordpress" d="M512 960c-282.304 0-512-229.696-512-512s229.696-512.032 512-512.032 512 229.728 512 512.032-229.696 512-512 512zM51.68 448c0 66.752 14.304 130.080 39.872 187.328l219.552-601.6c-153.536 74.592-259.424 232.064-259.424 414.272zM512-12.352c-45.184 0-88.8 6.592-130.016 18.72l138.112 401.344 141.504-387.648c0.928-2.24 2.048-4.352 3.296-6.304-47.872-16.896-99.264-26.112-152.896-26.112zM575.424 663.84c27.712 1.44 52.672 4.352 52.672 4.352 24.8 2.944 21.888 39.392-2.944 37.952 0 0-74.528-5.856-122.688-5.856-45.248 0-121.248 5.856-121.248 5.856-24.8 1.472-27.712-36.448-2.912-37.952 0 0 23.488-2.912 48.288-4.352l71.712-196.544-100.736-302.112-167.584 498.656c27.744 1.44 52.672 4.352 52.672 4.352 24.736 2.944 21.888 39.392-2.944 37.952 0 0-74.56-5.856-122.72-5.856-8.64 0-18.816 0.192-29.632 0.576 82.368 124.96 223.84 207.456 384.64 207.456 119.84 0 228.96-45.792 310.88-120.864-1.984 0.16-3.936 0.416-5.984 0.416-45.216 0-77.312-39.392-77.312-81.728 0-37.952 21.888-70.016 45.216-107.968 17.504-30.624 37.984-70.016 37.984-126.976 0-39.36-15.168-85.088-35.040-148.8l-45.952-153.376-166.368 494.816zM915.936 668.832c35.936-65.6 56.384-140.8 56.384-220.832 0-169.856-92.032-318.080-228.864-397.92l140.608 406.528c26.24 65.664 35.008 118.176 35.008 164.832-0.032 16.992-1.12 32.704-3.136 47.392z" />
</font>
</defs>
</svg>
